<svg id="Слой_1" data-name="Слой 1" xmlns="http://www.w3.org/2000/svg" viewBox="0 0 152 52"><defs><style>.cls-1{fill:#44bee5;}</style></defs><title>Монтажная область 1</title><path class="cls-1" d="M41.83,10.62c0,.42-.55.58-1.09.58A1.66,1.66,0,0,1,39,9.34a1.6,1.6,0,0,1,1.7-1.67c.7,0,1.23.34,1.23.85a.39.39,0,0,1-.42.42h-.17V8.82a.58.58,0,0,0-.66-.6,1,1,0,0,0-1,1.12,1.17,1.17,0,0,0,1.26,1.29,2.23,2.23,0,0,0,.89-.2Zm1.8.53h-.19c-.66,0-.94-.27-.94-.93V8.1c0-.37.09-.37.63-.37h.55c.64,0,1.25.22,1.25.88a.85.85,0,0,1-.6.83.71.71,0,0,1,.6.73C44.93,10.81,44.31,11.15,43.63,11.15Zm-.06-2.91h-.44v1h.34c.51,0,.8-.19.8-.53S44,8.24,43.57,8.24Zm0,1.46h-.39v.51c0,.27.1.41.38.41h.08c.31,0,.68-.12.68-.49S43.92,9.7,43.52,9.7Zm2,1.45V8c0-.31.09-.31.63-.31v3.44Zm3.71,0V8.7l-1.72,2.51A1.64,1.64,0,0,1,47,11V8c0-.31.09-.31.62-.31v2.47l1.73-2.5a1.43,1.43,0,0,1,.61.17v3C49.91,11.17,49.82,11.17,49.28,11.17ZM47.63,6.75c0-.19.12-.25.32-.25A.54.54,0,0,0,49,6.5c.19,0,.32.06.32.25a.75.75,0,0,1-.85.71C47.93,7.46,47.63,7.13,47.63,6.75Zm6.87,5.38a1.4,1.4,0,0,1-.36-.08,5.15,5.15,0,0,0,.22-.9H52.18l-.17.74c0,.19-.16.19-.52.19V10.77l.53-.1.45-2.37h-.31c0-.4,0-.57.21-.57h1.44c.66,0,.88.22.88.85v2.1l.44.09v.08A3.91,3.91,0,0,1,54.75,12,.3.3,0,0,1,54.5,12.13Zm-.45-3.45c0-.27-.11-.38-.38-.38h-.59l-.34,2.27h1.31Zm3,2.52a1.71,1.71,0,0,1-1.66-1.86,1.67,1.67,0,1,1,3.33,0A1.72,1.72,0,0,1,57,11.2Zm0-3c-.62,0-1,.41-1,1.12s.4,1.3,1,1.3,1-.52,1-1.3S57.66,8.22,57,8.22Zm6.18,2.4c0,.42-.55.58-1.1.58A1.65,1.65,0,0,1,60.4,9.34a1.59,1.59,0,0,1,1.7-1.67c.69,0,1.22.34,1.22.85a.39.39,0,0,1-.42.42h-.16V8.82a.58.58,0,0,0-.66-.6,1,1,0,0,0-1,1.12,1.17,1.17,0,0,0,1.26,1.29,2.31,2.31,0,0,0,.9-.2Zm1.79.53h-.19c-.65,0-.93-.27-.93-.93V8.1c0-.37.09-.37.62-.37h.55c.65,0,1.25.22,1.25.88a.85.85,0,0,1-.6.83.71.71,0,0,1,.6.73C66.31,10.81,65.69,11.15,65,11.15ZM65,8.24h-.45v1h.34c.52,0,.8-.19.8-.53S65.34,8.24,65,8.24ZM64.9,9.7h-.39v.51c0,.27.1.41.38.41H65c.3,0,.68-.12.68-.49S65.31,9.7,64.9,9.7Zm3.56,1.5A1.72,1.72,0,0,1,66.8,9.34a1.67,1.67,0,1,1,3.33,0A1.72,1.72,0,0,1,68.46,11.2Zm0-3c-.62,0-1,.41-1,1.12s.4,1.3,1,1.3,1-.52,1-1.3S69.09,8.22,68.46,8.22Zm2.93.09v2.84h-.63V8.05c0-.32.1-.32.63-.32h1.46c.23,0,.23.2.23.58ZM75,11.2a1.71,1.71,0,0,1-1.66-1.86,1.67,1.67,0,1,1,3.33,0A1.72,1.72,0,0,1,75,11.2Zm0-3c-.62,0-1,.41-1,1.12s.4,1.3,1,1.3,1-.52,1-1.3S75.59,8.22,75,8.22Zm5.76,2.95V8.68c0-.27-.11-.38-.38-.38H79.09v2.85h-.63V8.05c0-.32.09-.32.63-.32h1.4c.65,0,.88.22.88.85v2.27C81.37,11.17,81.28,11.17,80.73,11.17Zm2.92,0A1.71,1.71,0,0,1,82,9.34a1.66,1.66,0,1,1,3.32,0A1.72,1.72,0,0,1,83.65,11.2Zm0-3c-.61,0-1,.41-1,1.12s.4,1.3,1,1.3,1-.52,1-1.3S84.28,8.22,83.65,8.22Zm6.18,2.4c0,.42-.55.58-1.09.58A1.65,1.65,0,0,1,87,9.34a1.59,1.59,0,0,1,1.7-1.67c.69,0,1.22.34,1.22.85a.39.39,0,0,1-.42.42h-.17V8.82a.58.58,0,0,0-.66-.6,1,1,0,0,0-1,1.12,1.17,1.17,0,0,0,1.26,1.29,2.23,2.23,0,0,0,.89-.2Zm1.8.53h-.19c-.65,0-.94-.27-.94-.93V8.1c0-.37.09-.37.63-.37h.55c.65,0,1.25.22,1.25.88a.85.85,0,0,1-.6.83.71.71,0,0,1,.6.73C92.93,10.81,92.31,11.15,91.63,11.15Zm0-2.91h-.45v1h.34c.52,0,.8-.19.8-.53S92,8.24,91.58,8.24ZM91.52,9.7h-.39v.51c0,.27.1.41.38.41h.08c.31,0,.68-.12.68-.49S91.92,9.7,91.52,9.7Zm3.56,1.5a1.71,1.71,0,0,1-1.66-1.86,1.66,1.66,0,1,1,3.32,0A1.72,1.72,0,0,1,95.08,11.2Zm0-3c-.62,0-1,.41-1,1.12s.4,1.3,1,1.3,1-.52,1-1.3S95.7,8.22,95.08,8.22Zm2.83,1.55a1.15,1.15,0,0,0,1.22.86,2.23,2.23,0,0,0,.89-.2v.19c0,.42-.55.58-1.1.58A1.65,1.65,0,0,1,97.2,9.34a1.61,1.61,0,0,1,1.72-1.67c.69,0,1.21.34,1.21.82a.39.39,0,0,1-.41.42h-.17V8.79c0-.33-.25-.57-.67-.57a1,1,0,0,0-1,1h1.38v.51Zm2.56-.39a.62.62,0,0,1,0-.31c.43-.21.89-.52.89-.88a.31.31,0,0,0-.62,0v.07h-.11a.18.18,0,0,1-.2-.18c0-.29.29-.48.65-.48s.67.2.67.56a1.19,1.19,0,0,1-.69.93h.67v.31Zm1.66-.23a.22.22,0,0,1,.25-.25.23.23,0,0,1,.25.25.23.23,0,0,1-.25.26C102.2,9.41,102.13,9.31,102.13,9.15Zm1.49.26c-.51,0-.72-.46-.72-1s.21-.86.72-.86.71.35.71.86S104.11,9.41,103.62,9.41Zm0-1.53c-.24,0-.33.2-.33.56s.1.67.33.67.33-.3.33-.67S103.86,7.88,103.62,7.88Z"/><path class="cls-1" d="M41.83,10.62c0,.42-.55.58-1.09.58A1.66,1.66,0,0,1,39,9.34a1.6,1.6,0,0,1,1.7-1.67c.7,0,1.23.34,1.23.85a.39.39,0,0,1-.42.42h-.17V8.82a.58.58,0,0,0-.66-.6,1,1,0,0,0-1,1.12,1.17,1.17,0,0,0,1.26,1.29,2.23,2.23,0,0,0,.89-.2Zm1.8.53h-.19c-.66,0-.94-.27-.94-.93V8.1c0-.37.09-.37.63-.37h.55c.64,0,1.25.22,1.25.88a.85.85,0,0,1-.6.83.71.71,0,0,1,.6.73C44.93,10.81,44.31,11.15,43.63,11.15Zm-.06-2.91h-.44v1h.34c.51,0,.8-.19.8-.53S44,8.24,43.57,8.24Zm0,1.46h-.39v.51c0,.27.1.41.38.41h.08c.31,0,.68-.12.68-.49S43.92,9.7,43.52,9.7Zm2,1.45V8c0-.31.09-.31.63-.31v3.44Zm3.71,0V8.7l-1.72,2.51A1.64,1.64,0,0,1,47,11V8c0-.31.09-.31.62-.31v2.47l1.73-2.5a1.43,1.43,0,0,1,.61.17v3C49.91,11.17,49.82,11.17,49.28,11.17ZM47.63,6.75c0-.19.12-.25.32-.25A.54.54,0,0,0,49,6.5c.19,0,.32.06.32.25a.75.75,0,0,1-.85.71C47.93,7.46,47.63,7.13,47.63,6.75Zm6.87,5.38a1.4,1.4,0,0,1-.36-.08,5.15,5.15,0,0,0,.22-.9H52.18l-.17.74c0,.19-.16.19-.52.19V10.77l.53-.1.45-2.37h-.31c0-.4,0-.57.21-.57h1.44c.66,0,.88.22.88.85v2.1l.44.09v.08A3.91,3.91,0,0,1,54.75,12,.3.3,0,0,1,54.5,12.13Zm-.45-3.45c0-.27-.11-.38-.38-.38h-.59l-.34,2.27h1.31Zm3,2.52a1.71,1.71,0,0,1-1.66-1.86,1.67,1.67,0,1,1,3.33,0A1.72,1.72,0,0,1,57,11.2Zm0-3c-.62,0-1,.41-1,1.12s.4,1.3,1,1.3,1-.52,1-1.3S57.66,8.22,57,8.22Zm6.18,2.4c0,.42-.55.58-1.1.58A1.65,1.65,0,0,1,60.4,9.34a1.59,1.59,0,0,1,1.7-1.67c.69,0,1.22.34,1.22.85a.39.39,0,0,1-.42.42h-.16V8.82a.58.58,0,0,0-.66-.6,1,1,0,0,0-1,1.12,1.17,1.17,0,0,0,1.26,1.29,2.31,2.31,0,0,0,.9-.2Zm1.79.53h-.19c-.65,0-.93-.27-.93-.93V8.1c0-.37.09-.37.62-.37h.55c.65,0,1.25.22,1.25.88a.85.85,0,0,1-.6.83.71.71,0,0,1,.6.73C66.31,10.81,65.69,11.15,65,11.15ZM65,8.24h-.45v1h.34c.52,0,.8-.19.8-.53S65.34,8.24,65,8.24ZM64.9,9.7h-.39v.51c0,.27.1.41.38.41H65c.3,0,.68-.12.68-.49S65.31,9.7,64.9,9.7Zm3.56,1.5A1.72,1.72,0,0,1,66.8,9.34a1.67,1.67,0,1,1,3.33,0A1.72,1.72,0,0,1,68.46,11.2Zm0-3c-.62,0-1,.41-1,1.12s.4,1.3,1,1.3,1-.52,1-1.3S69.09,8.22,68.46,8.22Zm2.93.09v2.84h-.63V8.05c0-.32.1-.32.63-.32h1.46c.23,0,.23.2.23.58ZM75,11.2a1.71,1.71,0,0,1-1.66-1.86,1.67,1.67,0,1,1,3.33,0A1.72,1.72,0,0,1,75,11.2Zm0-3c-.62,0-1,.41-1,1.12s.4,1.3,1,1.3,1-.52,1-1.3S75.59,8.22,75,8.22Zm5.76,2.95V8.68c0-.27-.11-.38-.38-.38H79.09v2.85h-.63V8.05c0-.32.09-.32.63-.32h1.4c.65,0,.88.22.88.85v2.27C81.37,11.17,81.28,11.17,80.73,11.17Zm2.92,0A1.71,1.71,0,0,1,82,9.34a1.66,1.66,0,1,1,3.32,0A1.72,1.72,0,0,1,83.65,11.2Zm0-3c-.61,0-1,.41-1,1.12s.4,1.3,1,1.3,1-.52,1-1.3S84.28,8.22,83.65,8.22Zm6.18,2.4c0,.42-.55.58-1.09.58A1.65,1.65,0,0,1,87,9.34a1.59,1.59,0,0,1,1.7-1.67c.69,0,1.22.34,1.22.85a.39.39,0,0,1-.42.42h-.17V8.82a.58.58,0,0,0-.66-.6,1,1,0,0,0-1,1.12,1.17,1.17,0,0,0,1.26,1.29,2.23,2.23,0,0,0,.89-.2Zm1.8.53h-.19c-.65,0-.94-.27-.94-.93V8.1c0-.37.09-.37.63-.37h.55c.65,0,1.25.22,1.25.88a.85.85,0,0,1-.6.83.71.71,0,0,1,.6.73C92.93,10.81,92.31,11.15,91.63,11.15Zm0-2.91h-.45v1h.34c.52,0,.8-.19.8-.53S92,8.24,91.58,8.24ZM91.52,9.7h-.39v.51c0,.27.1.41.38.41h.08c.31,0,.68-.12.68-.49S91.92,9.7,91.52,9.7Zm3.56,1.5a1.71,1.71,0,0,1-1.66-1.86,1.66,1.66,0,1,1,3.32,0A1.72,1.72,0,0,1,95.08,11.2Zm0-3c-.62,0-1,.41-1,1.12s.4,1.3,1,1.3,1-.52,1-1.3S95.7,8.22,95.08,8.22Zm2.83,1.55a1.15,1.15,0,0,0,1.22.86,2.23,2.23,0,0,0,.89-.2v.19c0,.42-.55.58-1.1.58A1.65,1.65,0,0,1,97.2,9.34a1.61,1.61,0,0,1,1.72-1.67c.69,0,1.21.34,1.21.82a.39.39,0,0,1-.41.42h-.17V8.79c0-.33-.25-.57-.67-.57a1,1,0,0,0-1,1h1.38v.51Zm2.56-.39a.62.62,0,0,1,0-.31c.43-.21.89-.52.89-.88a.31.31,0,0,0-.62,0v.07h-.11a.18.18,0,0,1-.2-.18c0-.29.29-.48.65-.48s.67.2.67.56a1.19,1.19,0,0,1-.69.93h.67v.31Zm1.66-.23a.22.22,0,0,1,.25-.25.23.23,0,0,1,.25.25.23.23,0,0,1-.25.26C102.2,9.41,102.13,9.31,102.13,9.15Zm1.49.26c-.51,0-.72-.46-.72-1s.21-.86.72-.86.71.35.71.86S104.11,9.41,103.62,9.41Zm0-1.53c-.24,0-.33.2-.33.56s.1.67.33.67.33-.3.33-.67S103.86,7.88,103.62,7.88Z"/><path class="cls-1" d="M78.54,17.36c.6.1.93,0,1-.3.36-.76-1.07-1.39-1.6-1.61A7.66,7.66,0,0,0,75.35,15a8,8,0,0,0-5.68,2.26v-.46a1.38,1.38,0,0,0-.45-1,1.67,1.67,0,0,0-1.1-.41H65a1.71,1.71,0,0,0-1.91,1.95V40.71h0a1.35,1.35,0,0,0,.51.93,2,2,0,0,0,1.18.47h3.43a1.58,1.58,0,0,0,1.08-.41,1.37,1.37,0,0,0,.46-1V25.17a8.1,8.1,0,0,1,8.74-7.81Z"/><path class="cls-1" d="M89.22,14.54c-9.93.87-12.83,11-12.64,15.57.25,6,3.92,12.42,12.75,12.42a11.45,11.45,0,0,0,8-2.69c1-.87,1.1-2.53-1.25-1.65a10.55,10.55,0,0,1-4.73.54c-4-.18-8.13-3.61-8.79-7.45,0-.1-.09-.44-.11-.56l.62.27A20.85,20.85,0,0,0,91,32.53c5.31-.29,10.6-2.4,10.13-9.85C101,20.3,99.09,13.68,89.22,14.54Zm7.52,9.61c-.64,3.12-4.66,4.15-8.37,3.3a15.41,15.41,0,0,1-5.29-2.25,9.38,9.38,0,0,1,8.59-6C94.42,19.15,97.42,20.92,96.74,24.15Z"/><path class="cls-1" d="M47.48,14.54c-10.5,1-12.83,11-12.65,15.57.26,6,3.94,12.42,12.76,12.42a11.48,11.48,0,0,0,8-2.69c1-.87,1.1-2.53-1.26-1.65a10.58,10.58,0,0,1-4.74.54c-4-.18-8.12-3.61-8.78-7.45,0-.1-.11-.44-.12-.56l.62.27a20.92,20.92,0,0,0,7.93,1.54c5.32-.29,10.61-2.4,10.14-9.85C59.23,20.3,57.33,13.56,47.48,14.54ZM55,24.15c-.66,3.12-4.66,4.15-8.39,3.3a15.57,15.57,0,0,1-5.29-2.25,9.39,9.39,0,0,1,8.61-6C52.67,19.15,55.67,20.92,55,24.15Z"/><path class="cls-1" d="M25.9,13.36v8.53a6.62,6.62,0,0,0,6.79-6.79V6.54A6.86,6.86,0,0,0,25.9,13.36Z"/><path class="cls-1" d="M122.53,25.16l0-.1a6.65,6.65,0,0,0-6.66,6.78c0,2.91,0,5.82,0,8.71v0h0a1.5,1.5,0,0,0,.49,1.08,1.85,1.85,0,0,0,1.21.45h3.27a1.93,1.93,0,0,0,1.24-.41,1.54,1.54,0,0,0,.44-1.14l0-15a.78.78,0,0,0,0-.16A2.16,2.16,0,0,0,122.53,25.16Z"/><path class="cls-1" d="M123.44,6.69a9.86,9.86,0,0,0-7.56,9.55v7.48c2.14-.26,3-.39,4.78-2,2-1.82,1.9-5,1.9-5s0-3.25,0-3.53c-.07-2.31,0-4.66,1.3-6C124.21,6.74,124,6.59,123.44,6.69Z"/><path class="cls-1" d="M9.5,14.21h3.12l0,.18V37.05c0,7.11-4.19,11.28-10.12,11.77-.63,0-.66.82.39,1,7.57,1,16.39-2.14,16.37-14.49V13.73c0-4,1.93-5.18,3.32-6.32L3,7.43A6.86,6.86,0,0,0,9.5,14.21Z"/><path class="cls-1" d="M151.47,38.91a1.74,1.74,0,0,1-1.8.09c-.47-.25-.87-.51-.87-1.75V24.92a9.53,9.53,0,0,0-1-4.49,10.38,10.38,0,0,0-11.6-5.83,10.78,10.78,0,0,0-6.87,4.68c-.79,1.3-.87,2.18-.15,2.29a2.07,2.07,0,0,0,1.36-.49c.25-.17.52-.39.82-.59A13.1,13.1,0,0,1,136,18.2c3.84-.77,6.38.8,6.25,3.92-.16,4-6.5,4-8.88,4.28-5.24.61-6.68,4-6.68,4a8.17,8.17,0,0,0,3.48,11.52,9.51,9.51,0,0,0,4.41.82c3,0,6.1-1.12,7.53-3.4.34,1.82,2,3.18,4.81,3.23C149.37,42.62,151.74,41.44,151.47,38.91Zm-9.41-7.23a6.16,6.16,0,0,1-6.51,6.51,3.86,3.86,0,0,1-3.9-4.12,3.8,3.8,0,0,1,2.25-3.33,68.31,68.31,0,0,1,8.22-2.17Z"/><path class="cls-1" d="M113.39,6.83A11.9,11.9,0,0,0,106,13.88a31.56,31.56,0,0,0-1.63,10.74l0,16,0,.19a2,2,0,0,0,.44.9,1.61,1.61,0,0,0,1,.45h3.8a1.45,1.45,0,0,0,.66-.15,1.56,1.56,0,0,0,.28-.16h0a1.08,1.08,0,0,0,.38-.51,1.38,1.38,0,0,0,.11-.55l0-20.85c0-2.85.25-6.44,1.07-8.7A11,11,0,0,1,114.57,7C114.93,6.61,114.18,6.59,113.39,6.83Z"/></svg>